# xmcd
#
# Track frame offsets: 
#        150
#        26775
#        44727
#        62352
#        77763
#        93059
#        109311
#        128656
#        149048
#        174420
#        191150
#        208864
#
# Disc length: 2979 seconds
#
# Revision: 0
# Processed by: cddbd v1.5.2PL0 Copyright (c) Steve Scherf et al.
# Submitted via: ExactAudioCopy v1.2
#
DISCID=ae0ba10c
DTITLE=Willie May - Alone
DYEAR=2009
DGENRE=Blues
TTITLE0=Heartbreak
TTITLE1=Wish You Could Stay
TTITLE2=Evil Wicked
TTITLE3=Blues Parade
TTITLE4=Everybody But Me
TTITLE5=Lookin' for Jesus
TTITLE6=How Can It Be
TTITLE7=All Alone
TTITLE8=Blue Room
TTITLE9=Goria
TTITLE10=You Know I'm Lyin'
TTITLE11=I Got the Blues Today
EXTD=
EXTT0=
EXTT1=
EXTT2=
EXTT3=
EXTT4=
EXTT5=
EXTT6=
EXTT7=
EXTT8=
EXTT9=
EXTT10=
EXTT11=
PLAYORDER=
